# xmcd
#
# Track frame offsets:
#	150
#	19580
#	35197
#	51386
#	65360
#	83846
#	102829
#	123816
#	140276
#	154825
#	178059
#	196499
#	216913
#	235917
#	254827
#	272409
#	294797
#	310259
#	327058
#
# Disc length: 4630 seconds
#
# Revision: 2
# Processed by: cddbd v1.5.2PL0 Copyright (c) Steve Scherf et al.
# Submitted via: audiograbber 1.83.01
#
DISCID=12121413
DTITLE=Various Artist - Zoom-TP-90's-Disc 1
DYEAR=1900
DGENRE=Karaoke
TTITLE0=Bryan Adams - (Everything I Do) I Do It For You 
TTITLE1=UB40 - (I Can't Help) Falling in Love With You
TTITLE2=Steps - 5.6.7.8.
TTITLE3=Beautiful South,The - A Little Time
TTITLE4=Take That - A Million Love Songs
TTITLE5=Jimmy Nail - Ain't No Doubt
TTITLE6=Sheryl Crow - All I Wanna Do
TTITLE7=Ace Of Base - All That She Wants
TTITLE8=Supergrass - Alright
TTITLE9=Bon Jovi - Always
TTITLE10=Lonestar - Amazed
TTITLE11=Robbie Williams - Angels
TTITLE12=MC Sar and The Real McCoy - Another Night
TTITLE13=Jason Donovan - Any Dream Will Do
TTITLE14=Backstreet Boys,The - As Long As You Love Me
TTITLE15=Take That - Babe
TTITLE16=Boyzone - Baby Can I Hold You
TTITLE17=Britney Spears - Baby One More Time
TTITLE18=Big Mountain - Baby I Love Your Way
EXTD=
EXTT0=
EXTT1=
EXTT2=
EXTT3=
EXTT4=
EXTT5=
EXTT6=
EXTT7=
EXTT8=
EXTT9=
EXTT10=
EXTT11=
EXTT12=
EXTT13=
EXTT14=
EXTT15=
EXTT16=
EXTT17=
EXTT18=
PLAYORDER=
